<svg width="30" height="30" viewBox="0 0 23 24" fill="none" xmlns="http://www.w3.org/2000/svg">
<path d="M20.9938 0.46016C20.6015 0.2262 20.1702 0.0774578 19.7244 0.0224286C19.2785 -0.0326006 18.827 0.00716108 18.3955 0.139443C17.964 0.271725 17.561 0.493936 17.2095 0.793383C16.8581 1.09283 16.565 1.46365 16.3471 1.88466L10.0041 14.135L6.37387 10.2392C6.05869 9.88896 5.68168 9.60962 5.26483 9.41745C4.84799 9.22529 4.39965 9.12414 3.94599 9.11991C3.49233 9.11568 3.04242 9.20845 2.62253 9.39281C2.20263 9.57718 1.82115 9.84944 1.50035 10.1937C1.17955 10.538 0.925854 10.9474 0.754061 11.398C0.582268 11.8486 0.495821 12.3314 0.499763 12.8183C0.503705 13.3052 0.597958 13.7863 0.777022 14.2336C0.956086 14.681 1.21638 15.0856 1.5427 15.4238L8.37604 22.7572C9.02179 23.452 9.89303 23.8333 10.7916 23.8333L11.2648 23.7967C11.7885 23.718 12.2881 23.51 12.7241 23.1891C13.1602 22.8681 13.5209 22.4428 13.7778 21.9468L22.3194 5.44683C22.5375 5.02599 22.6762 4.56317 22.7276 4.08481C22.779 3.60644 22.7421 3.12189 22.619 2.65883C22.4959 2.19577 22.289 1.76327 22.0102 1.38602C21.7313 1.00877 21.3859 0.694162 20.9938 0.46016Z" fill="#00FF11"/>
</svg>
